<mxfile host="Electron" modified="2023-08-21T12:06:34.246Z" agent="5.0 (Windows NT 10.0; Win64; x64) AppleWebKit/537.36 (KHTML, like Gecko) draw.io/20.3.0 Chrome/104.0.5112.114 Electron/20.1.3 Safari/537.36" etag="Y2QgzwyydZsuF1mLfmLk" compressed="false" version="20.3.0" type="device">
  <diagram name="PA004A" id="xPoDzM4bSqNOrMq-EvtB">
    <mxGraphModel dx="805" dy="550" grid="1" gridSize="2" guides="1" tooltips="1" connect="1" arrows="1" fold="1" page="1" pageScale="1" pageWidth="1169" pageHeight="827" math="0" shadow="0">
      <root>
        <mxCell id="V8a0Q9UmwZ13LLx6PJSJ-0" />
        <mxCell id="V8a0Q9UmwZ13LLx6PJSJ-124" value="Connection" style="" parent="V8a0Q9UmwZ13LLx6PJSJ-0" />
        <object label="Connection" PipingConnector="N" LabelConnector="N" SignalConnector="N" Direction="270" AuxiliaryConnector="Y" id="V8a0Q9UmwZ13LLx6PJSJ-125">
          <mxCell style="vsdxID=1407;fillColor=none;gradientColor=none;shape=stencil(rVFbDsIgEDwNnyQU4glqvcfGblsilmZBS28vZGMsxg9j/JvZmX1kR5g2TLCg0CpE8hdcbR8nYY5CaztPSDZmJEwnTDt4wpH8be6ZL1CcBV39vUxI3KdKh1YbswPTEzuBzlmiVGmKau9zUKM+jlJJQrJBko8QrZ+rrQ5oRJnXyMHBWElhRVx25ebnw/5zVvPFWRm83jxY5zilvf4eSy5xpKZ7AA==);strokeColor=#00FF00;strokeWidth=1;points=[[0.5,0.5,0,0,0]];labelBackgroundColor=none;rounded=0;html=1;whiteSpace=wrap;aspect=fixed;noLabel=1;snapToPoint=1;container=0;fontSize=16;" parent="V8a0Q9UmwZ13LLx6PJSJ-124" vertex="1">
            <mxGeometry x="282" y="330" width="12" height="12" as="geometry" />
          </mxCell>
        </object>
        <mxCell id="V8a0Q9UmwZ13LLx6PJSJ-131" value="Label" style="locked=1;" parent="V8a0Q9UmwZ13LLx6PJSJ-0" />
        <mxCell id="V8a0Q9UmwZ13LLx6PJSJ-132" value="Origo" style="" parent="V8a0Q9UmwZ13LLx6PJSJ-0" />
        <object label="origo" id="V8a0Q9UmwZ13LLx6PJSJ-133">
          <mxCell style="vsdxID=1407;fillColor=none;gradientColor=none;shape=stencil(rVFbDsIgEDwNnyQU4glqvcfGblsilmZBS28vZGMsxg9j/JvZmX1kR5g2TLCg0CpE8hdcbR8nYY5CaztPSDZmJEwnTDt4wpH8be6ZL1CcBV39vUxI3KdKh1YbswPTEzuBzlmiVGmKau9zUKM+jlJJQrJBko8QrZ+rrQ5oRJnXyMHBWElhRVx25ebnw/5zVvPFWRm83jxY5zilvf4eSy5xpKZ7AA==);strokeColor=#ff0000;strokeWidth=1;points=[[0.5,0.5,0,0,0]];labelBackgroundColor=none;rounded=0;html=1;whiteSpace=wrap;aspect=fixed;noLabel=1;snapToPoint=1;" parent="V8a0Q9UmwZ13LLx6PJSJ-132" vertex="1">
            <mxGeometry x="284.06" y="332.06" width="7.874" height="7.87" as="geometry" />
          </mxCell>
        </object>
        <object label="Symbol" Width="6" Height="7" UoM="mm" id="V8a0Q9UmwZ13LLx6PJSJ-134">
          <mxCell style="" parent="V8a0Q9UmwZ13LLx6PJSJ-0" />
        </object>
        <mxCell id="V8a0Q9UmwZ13LLx6PJSJ-135" value="" style="endArrow=none;html=1;rounded=0;entryX=0.5;entryY=1;entryDx=0;entryDy=0;" parent="V8a0Q9UmwZ13LLx6PJSJ-134" edge="1">
          <mxGeometry width="50" height="50" relative="1" as="geometry">
            <mxPoint x="288" y="336" as="sourcePoint" />
            <mxPoint x="288" y="224" as="targetPoint" />
          </mxGeometry>
        </mxCell>
        <mxCell id="iX3n1Du3zHFWAhC_WY6V-1" value="" style="endArrow=none;html=1;rounded=0;strokeColor=#000000;" parent="V8a0Q9UmwZ13LLx6PJSJ-134" edge="1">
          <mxGeometry width="50" height="50" relative="1" as="geometry">
            <mxPoint x="272" y="274" as="sourcePoint" />
            <mxPoint x="304" y="246" as="targetPoint" />
          </mxGeometry>
        </mxCell>
        <mxCell id="V8a0Q9UmwZ13LLx6PJSJ-136" value="" style="endArrow=none;html=1;rounded=0;strokeColor=#000000;" parent="V8a0Q9UmwZ13LLx6PJSJ-134" edge="1">
          <mxGeometry width="50" height="50" relative="1" as="geometry">
            <mxPoint x="263" y="304" as="sourcePoint" />
            <mxPoint x="311" y="260" as="targetPoint" />
          </mxGeometry>
        </mxCell>
        <mxCell id="iX3n1Du3zHFWAhC_WY6V-2" value="" style="endArrow=none;html=1;rounded=0;strokeColor=#000000;" parent="V8a0Q9UmwZ13LLx6PJSJ-134" edge="1">
          <mxGeometry width="50" height="50" relative="1" as="geometry">
            <mxPoint x="276" y="250" as="sourcePoint" />
            <mxPoint x="297" y="232" as="targetPoint" />
          </mxGeometry>
        </mxCell>
      </root>
    </mxGraphModel>
  </diagram>
</mxfile>
